# xmcd CD database file
#
# Track frame offsets:
#	150
#	26575
#	44397
#	69375
#	102923
#	125820
#	163116
#	192998
#	227366
#	256652
#	288866
#
# Disc length: 4254 seconds
#
# Revision: 1
# Processed by: cddbd v1.5.2PL0 Copyright (c) Steve Scherf et al.
# Submitted via: CDex 1.70beta3
#
DISCID=91109c0b
DTITLE=Kikuchi Masabumi - Black Orpheus
DYEAR=2012
DGENRE=Jazz
TTITLE0=Tokyo Part I
TTITLE1=Tokyo Part II
TTITLE2=Tokyo Part III
TTITLE3=Tokyo Part IV
TTITLE4=Tokyo Part V
TTITLE5=Black Orpheus
TTITLE6=Tokyo Part VI
TTITLE7=Tokyo Part VII
TTITLE8=Tokyo Part VIII
TTITLE9=Tokyo Part IX
TTITLE10=Little Abi
EXTD=YEAR: 2012
EXTT0=
EXTT1=
EXTT2=
EXTT3=
EXTT4=
EXTT5=
EXTT6=
EXTT7=
EXTT8=
EXTT9=
EXTT10=
PLAYORDER=
